<?xml version="1.0" encoding="utf-8"?>
<!-- Generator: Adobe Illustrator 16.0.0, SVG Export Plug-In . SVG Version: 6.00 Build 0)  -->
<!DOCTYPE svg PUBLIC "-//W3C//DTD SVG 1.1//EN" "http://www.w3.org/Graphics/SVG/1.1/DTD/svg11.dtd">
<svg version="1.1"
	 id="svg2" sodipodi:docname="signhere.svg" inkscape:version="0.48.0 r9654" xmlns:dc="http://purl.org/dc/elements/1.1/" xmlns:cc="http://creativecommons.org/ns#" xmlns:rdf="http://www.w3.org/1999/02/22-rdf-syntax-ns#" xmlns:svg="http://www.w3.org/2000/svg" xmlns:sodipodi="http://sodipodi.sourceforge.net/DTD/sodipodi-0.dtd" xmlns:inkscape="http://www.inkscape.org/namespaces/inkscape"
	 xmlns="http://www.w3.org/2000/svg" xmlns:xlink="http://www.w3.org/1999/xlink" x="0px" y="0px" width="180px" height="80px"
	 viewBox="0 0 180 80" enable-background="new 0 0 180 80" xml:space="preserve">
<sodipodi:namedview  inkscape:window-maximized="1" inkscape:window-y="221" inkscape:window-x="-9" inkscape:window-height="975" inkscape:window-width="1680" fit-margin-bottom="0" inkscape:current-layer="layer1" inkscape:pageshadow="2" inkscape:document-units="px" inkscape:pageopacity="0.0" fit-margin-right="0" borderlayer="true" fit-margin-left="0" fit-margin-top="0" showgrid="false" inkscape:cy="14.025007" inkscape:cx="134.72188" inkscape:zoom="1" borderopacity="1.0" bordercolor="#666666" pagecolor="#ffffff" id="base">
	</sodipodi:namedview>
<g id="layer2" transform="translate(0,-100)" sodipodi:insensitive="true" inkscape:groupmode="layer" inkscape:label="back" display="none">
	<path id="rect3785" display="inline" fill="#42DB3A" stroke="#FFFFFF" stroke-width="4.3284" d="M8.554-15.053h156.892
		c13.701,0,24.81,11.107,24.81,24.809V178.77c0,13.702-11.108,24.811-24.81,24.811H8.554c-13.702,0-24.81-11.108-24.81-24.811V9.756
		C-16.256-3.945-5.148-15.053,8.554-15.053z"/>
</g>
<g id="layer1" transform="translate(-86.373116,-496.07017)" inkscape:groupmode="layer" inkscape:label="Layer 1">
	<path fill="#EA7502" stroke="#000000" stroke-width="1.93" d="M255.315,554.7l-37.524,16.704L95.087,545.862
		c-3.245-0.676-5.327-3.854-4.651-7.097l6.997-33.613c0.675-3.245,3.853-5.327,7.097-4.651l122.703,25.542L255.315,554.7z"/>
	<g>
		<path d="M116.384,520.97c-0.09,0.098-0.179,0.167-0.265,0.207s-0.189,0.049-0.309,0.024c-0.127-0.026-0.261-0.121-0.403-0.283
			c-0.142-0.163-0.325-0.347-0.552-0.554c-0.226-0.206-0.506-0.411-0.842-0.613s-0.761-0.357-1.277-0.465
			c-0.485-0.101-0.929-0.125-1.329-0.072c-0.401,0.053-0.75,0.166-1.046,0.338c-0.297,0.172-0.541,0.396-0.731,0.672
			c-0.189,0.276-0.321,0.589-0.394,0.94c-0.094,0.449-0.061,0.843,0.099,1.184c0.159,0.342,0.397,0.654,0.716,0.938
			c0.319,0.285,0.692,0.551,1.119,0.801c0.427,0.249,0.865,0.505,1.312,0.77c0.448,0.265,0.88,0.547,1.296,0.848
			s0.773,0.646,1.07,1.036c0.297,0.389,0.509,0.834,0.634,1.335c0.125,0.502,0.119,1.085-0.019,1.75
			c-0.146,0.702-0.403,1.336-0.77,1.902c-0.368,0.567-0.829,1.03-1.382,1.39c-0.555,0.359-1.193,0.602-1.916,0.725
			c-0.723,0.121-1.51,0.094-2.361-0.083c-1.038-0.216-1.946-0.601-2.723-1.157c-0.777-0.555-1.401-1.216-1.872-1.985l0.842-0.9
			c0.077-0.07,0.164-0.125,0.261-0.162c0.098-0.039,0.199-0.046,0.304-0.024c0.156,0.032,0.318,0.154,0.485,0.364
			c0.166,0.21,0.38,0.447,0.641,0.712c0.26,0.265,0.588,0.525,0.982,0.783c0.395,0.257,0.901,0.45,1.522,0.579
			c0.515,0.107,0.989,0.132,1.422,0.074c0.433-0.057,0.816-0.187,1.15-0.386c0.333-0.2,0.612-0.463,0.836-0.79
			c0.224-0.329,0.381-0.711,0.473-1.152c0.101-0.486,0.074-0.906-0.082-1.263c-0.156-0.356-0.391-0.676-0.706-0.959
			c-0.315-0.284-0.688-0.546-1.117-0.787c-0.429-0.242-0.868-0.489-1.318-0.742c-0.45-0.254-0.883-0.529-1.301-0.827
			c-0.417-0.297-0.771-0.644-1.062-1.04c-0.292-0.395-0.498-0.857-0.618-1.384c-0.12-0.528-0.106-1.146,0.042-1.856
			c0.119-0.568,0.343-1.094,0.673-1.578c0.331-0.485,0.748-0.889,1.252-1.212c0.503-0.324,1.089-0.545,1.756-0.664
			c0.668-0.118,1.401-0.094,2.201,0.073c0.896,0.187,1.685,0.499,2.365,0.937c0.681,0.438,1.241,0.983,1.682,1.636L116.384,520.97z"
			/>
		<path d="M119.794,535.811l-2.173-0.453l3.342-16.055l2.174,0.452L119.794,535.811z"/>
		<path d="M131.585,536.617c0.433,0.091,0.834,0.152,1.206,0.187c0.371,0.034,0.725,0.044,1.063,0.028
			c0.338-0.015,0.661-0.051,0.969-0.107c0.308-0.057,0.62-0.13,0.935-0.221l0.737-3.541l-2.487-0.518
			c-0.142-0.03-0.248-0.094-0.316-0.194c-0.069-0.1-0.091-0.209-0.066-0.33l0.257-1.232l4.929,1.026l-1.283,6.163
			c-0.464,0.208-0.937,0.374-1.418,0.5c-0.482,0.126-0.987,0.209-1.514,0.251c-0.527,0.043-1.082,0.04-1.664-0.007
			c-0.583-0.048-1.206-0.141-1.871-0.279c-1.166-0.242-2.192-0.664-3.08-1.265c-0.888-0.603-1.608-1.337-2.16-2.205
			c-0.552-0.867-0.919-1.845-1.102-2.934c-0.182-1.09-0.147-2.24,0.104-3.45c0.255-1.226,0.68-2.302,1.275-3.229
			c0.595-0.93,1.323-1.679,2.187-2.252c0.863-0.572,1.842-0.951,2.937-1.136c1.095-0.185,2.269-0.147,3.523,0.114
			c0.635,0.132,1.216,0.301,1.742,0.508s1.004,0.447,1.434,0.719c0.43,0.273,0.817,0.576,1.161,0.909
			c0.344,0.332,0.655,0.691,0.933,1.076l-0.821,0.858c-0.169,0.175-0.354,0.242-0.556,0.2c-0.119-0.025-0.242-0.093-0.367-0.206
			c-0.165-0.143-0.348-0.313-0.548-0.511c-0.2-0.198-0.452-0.4-0.756-0.608c-0.304-0.207-0.671-0.406-1.103-0.598
			c-0.432-0.191-0.957-0.351-1.577-0.479c-0.904-0.188-1.752-0.211-2.546-0.069c-0.793,0.144-1.504,0.435-2.135,0.877
			c-0.629,0.442-1.164,1.024-1.603,1.747c-0.439,0.724-0.759,1.571-0.961,2.542c-0.211,1.016-0.256,1.951-0.134,2.806
			c0.122,0.855,0.386,1.613,0.795,2.275c0.407,0.661,0.939,1.212,1.596,1.654C129.957,536.126,130.717,536.437,131.585,536.617z"/>
		<path d="M145.422,524.471c0.083,0.068,0.168,0.189,0.257,0.364l6.781,14.036c0.018-0.199,0.042-0.39,0.073-0.575
			c0.03-0.186,0.063-0.362,0.099-0.535L155,526.389l1.905,0.396l-3.342,16.056l-1.098-0.229c-0.171-0.035-0.309-0.095-0.412-0.179
			c-0.104-0.085-0.196-0.208-0.279-0.375l-6.771-14.021c-0.024,0.19-0.051,0.375-0.081,0.556c-0.03,0.181-0.061,0.346-0.092,0.496
			l-2.381,11.439l-1.904-0.396l3.342-16.055l1.121,0.233C145.2,524.349,145.339,524.403,145.422,524.471z"/>
		<path d="M174.825,547.266l-2.184-0.455l1.521-7.304l-8.649-1.801l-1.521,7.305l-2.185-0.455l3.342-16.055l2.185,0.455l-1.49,7.159
			l8.65,1.801l1.49-7.159l2.184,0.455L174.825,547.266z"/>
		<path d="M191.983,534.087l-0.368,1.77l-7.709-1.604l-1.109,5.332l6.241,1.3l-0.355,1.703l-6.241-1.299l-1.14,5.479l7.708,1.604
			l-0.368,1.771l-9.894-2.06l3.342-16.055L191.983,534.087z"/>
		<path d="M195.548,544.59l-1.395,6.7l-2.163-0.45l3.342-16.056l4.538,0.944c1.016,0.212,1.872,0.497,2.569,0.856
			c0.695,0.359,1.244,0.783,1.646,1.272c0.4,0.488,0.66,1.031,0.778,1.628c0.115,0.598,0.104,1.235-0.037,1.915
			c-0.118,0.569-0.318,1.08-0.6,1.535c-0.282,0.456-0.635,0.845-1.056,1.166c-0.422,0.322-0.905,0.569-1.452,0.743
			c-0.548,0.174-1.146,0.27-1.795,0.282c0.236,0.212,0.428,0.49,0.575,0.832l3.356,7.351l-1.928-0.401
			c-0.396-0.082-0.655-0.297-0.777-0.642l-2.975-6.604c-0.089-0.205-0.201-0.363-0.334-0.473s-0.349-0.195-0.647-0.257
			L195.548,544.59z M195.877,543.01l2.273,0.474c0.635,0.132,1.209,0.172,1.723,0.118c0.514-0.052,0.963-0.185,1.345-0.398
			c0.385-0.211,0.698-0.495,0.943-0.849c0.244-0.354,0.417-0.768,0.515-1.236c0.199-0.956,0.033-1.743-0.497-2.359
			c-0.529-0.618-1.419-1.057-2.665-1.315l-2.375-0.494L195.877,543.01z"/>
		<path d="M219.432,539.801l-0.369,1.771l-7.708-1.604l-1.11,5.332l6.241,1.299l-0.354,1.704l-6.241-1.3l-1.141,5.479l7.709,1.604
			l-0.368,1.771l-9.894-2.06l3.342-16.056L219.432,539.801z"/>
	</g>
</g>
</svg>
