<?xml version="1.0" encoding="utf-8"?>
<!-- Generator: Adobe Illustrator 16.0.0, SVG Export Plug-In . SVG Version: 6.00 Build 0)  -->
<!DOCTYPE svg PUBLIC "-//W3C//DTD SVG 1.1//EN" "http://www.w3.org/Graphics/SVG/1.1/DTD/svg11.dtd">
<svg version="1.1" id="Layer_1" xmlns="http://www.w3.org/2000/svg" xmlns:xlink="http://www.w3.org/1999/xlink" x="0px" y="0px"
	 width="900px" height="900px" viewBox="0 0 900 900" enable-background="new 0 0 900 900" xml:space="preserve">
<g opacity="0.07">
	<defs>
		<rect id="SVGID_1_" opacity="0.07" width="900" height="900"/>
	</defs>
	<clipPath id="SVGID_2_">
		<use xlink:href="#SVGID_1_"  overflow="visible"/>
	</clipPath>
	<g clip-path="url(#SVGID_2_)">
		<polyline fill="none" stroke="#FFFFFF" stroke-width="3" points="451.086,563.68 451.086,719.271 383.505,757.893 
			383.369,602.617 		"/>
		<polyline fill="none" stroke="#FFFFFF" stroke-width="3" points="451.016,874.467 450.948,796.83 518.664,757.893 		"/>
		<line fill="none" stroke="#FFFFFF" stroke-width="3" x1="653.756" y1="913.285" x2="518.598" y2="836.201"/>
		<line fill="none" stroke="#FFFFFF" stroke-width="3" x1="451.016" y1="874.822" x2="586.037" y2="952.223"/>
		<polyline fill="none" stroke="#FFFFFF" stroke-width="3" points="586.107,641.674 586.037,952.223 653.756,913.285 		"/>
		<polygon fill="none" stroke="#FFFFFF" stroke-width="3" points="721.334,408.465 721.266,719.014 788.984,680.076 
			788.916,369.845 		"/>
		<polyline fill="none" stroke="#FFFFFF" stroke-width="3" points="856.355,486.082 924.072,447.146 788.916,369.845 		"/>
		<polygon fill="none" stroke="#FFFFFF" stroke-width="3" points="586.107,641.674 721.266,719.232 788.984,680.295 
			653.688,603.053 		"/>
		<line fill="none" stroke="#FFFFFF" stroke-width="3" x1="383.438" y1="680.883" x2="315.858" y2="719.074"/>
		<line fill="none" stroke="#FFFFFF" stroke-width="3" x1="248.279" y1="602.656" x2="248.209" y2="447.186"/>
		<polyline fill="none" stroke="#FFFFFF" stroke-width="3" points="180.7,485.924 45.541,408.525 113.12,369.508 248.209,447.186 		
			"/>
		<polygon fill="none" stroke="#FFFFFF" stroke-width="3" points="45.541,408.525 113.12,369.508 113.085,291.99 45.575,330.729 		
			"/>
		<polygon fill="none" stroke="#FFFFFF" stroke-width="3" points="-22.039,291.792 45.541,252.934 113.085,291.99 45.575,330.729 		
			"/>
		<polygon fill="none" stroke="#FFFFFF" stroke-width="3" points="-22.039,291.792 45.541,252.934 45.437,97.461 -22.073,136.201 		
			"/>
		<polyline fill="none" stroke="#FFFFFF" stroke-width="3" points="248.209,213.917 45.437,97.461 -22.073,136.201 180.63,252.775 
					"/>
		<line fill="none" stroke="#FFFFFF" stroke-width="3" x1="586.176" y1="252.775" x2="586.141" y2="330.828"/>
		<polyline fill="none" stroke="#FFFFFF" stroke-width="3" points="653.756,291.792 653.756,524.932 586.07,563.928 
			586.141,330.828 		"/>
		<polyline fill="none" stroke="#FFFFFF" stroke-width="3" points="653.756,291.792 586.176,252.775 518.598,291.792 
			586.141,330.828 		"/>
		<polyline fill="none" stroke="#FFFFFF" stroke-width="3" points="586.244,408.515 451.018,330.472 383.438,369.488 
			518.629,447.551 		"/>
		<polyline fill="none" stroke="#FFFFFF" stroke-width="3" points="451.018,330.907 451.018,175.139 383.3,214.115 383.3,369.845 		
			"/>
		<line fill="none" stroke="#FFFFFF" stroke-width="3" x1="248.141" y1="291.871" x2="315.858" y2="252.934"/>
		<line fill="none" stroke="#FFFFFF" stroke-width="3" x1="383.506" y1="291.852" x2="315.789" y2="330.828"/>
		<polyline fill="none" stroke="#FFFFFF" stroke-width="3" points="721.334,796.869 856.494,874.664 924.072,835.648 		"/>
		<polygon fill="none" stroke="#FFFFFF" stroke-width="3" points="924.072,835.648 856.494,874.664 856.494,952.539 
			924.072,913.523 		"/>
		<polyline fill="none" stroke="#FFFFFF" stroke-width="3" points="721.334,952.223 788.914,913.404 788.914,758.09 
			721.334,796.869 		"/>
		<polyline fill="none" stroke="#FFFFFF" stroke-width="3" points="856.494,719.074 924.072,680.295 924.072,524.941 		"/>
		<polyline fill="none" stroke="#FFFFFF" stroke-width="3" points="383.438,136.201 451.018,97.541 586.107,175.217 		"/>
		<polyline fill="none" stroke="#FFFFFF" stroke-width="3" points="383.472,524.803 315.858,485.924 383.438,447.225 		"/>
		<line fill="none" stroke="#FFFFFF" stroke-width="3" x1="518.631" y1="602.617" x2="450.915" y2="563.68"/>
		<line fill="none" stroke="#FFFFFF" stroke-width="3" x1="450.915" y1="719.271" x2="518.494" y2="757.893"/>
		<line fill="none" stroke="#FFFFFF" stroke-width="3" x1="383.335" y1="757.893" x2="383.405" y2="835.846"/>
		<polyline fill="none" stroke="#FFFFFF" stroke-width="3" points="383.403,836.201 450.983,874.822 315.962,952.223 
			248.245,913.285 		"/>
		<polyline fill="none" stroke="#FFFFFF" stroke-width="3" points="315.893,641.674 315.962,952.223 248.245,913.285 
			248.313,603.053 		"/>
		<polyline fill="none" stroke="#FFFFFF" stroke-width="3" points="180.666,408.465 180.734,719.014 113.016,680.076 		"/>
		<polygon fill="none" stroke="#FFFFFF" stroke-width="3" points="180.666,408.465 45.645,486.082 -22.073,447.146 113.084,369.845 
					"/>
		<polyline fill="none" stroke="#FFFFFF" stroke-width="3" points="113.016,680.295 248.313,603.053 315.893,641.674 
			180.734,719.232 		"/>
		<polygon fill="none" stroke="#FFFFFF" stroke-width="3" points="518.562,680.883 586.143,719.074 721.301,641.674 
			653.721,602.656 		"/>
		<polygon fill="none" stroke="#FFFFFF" stroke-width="3" points="721.301,485.924 721.301,641.674 653.721,602.656 
			653.791,447.186 		"/>
		<polyline fill="none" stroke="#FFFFFF" stroke-width="3" points="788.881,369.508 653.791,447.186 721.301,485.924 
			856.459,408.525 		"/>
		<polyline fill="none" stroke="#FFFFFF" stroke-width="3" points="856.426,330.729 856.459,408.525 788.881,369.508 		"/>
		<polyline fill="none" stroke="#FFFFFF" stroke-width="3" points="788.914,291.99 856.426,330.729 924.039,291.792 		"/>
		<polyline fill="none" stroke="#FFFFFF" stroke-width="3" points="856.562,97.461 924.072,136.201 924.039,291.792 
			856.459,252.934 		"/>
		<line fill="none" stroke="#FFFFFF" stroke-width="3" x1="653.791" y1="213.917" x2="856.562" y2="97.461"/>
		<line fill="none" stroke="#FFFFFF" stroke-width="3" x1="924.072" y1="136.201" x2="721.369" y2="252.775"/>
		<polyline fill="none" stroke="#FFFFFF" stroke-width="3" points="315.859,408.525 383.474,447.186 383.403,291.792 
			315.824,252.775 		"/>
		<polyline fill="none" stroke="#FFFFFF" stroke-width="3" points="248.245,524.932 315.929,563.928 315.859,330.828 		"/>
		<line fill="none" stroke="#FFFFFF" stroke-width="3" x1="518.562" y1="369.488" x2="383.371" y2="447.551"/>
		<line fill="none" stroke="#FFFFFF" stroke-width="3" x1="450.983" y1="175.139" x2="518.699" y2="214.115"/>
		<polyline fill="none" stroke="#FFFFFF" stroke-width="3" points="113.085,758.09 180.666,796.869 45.506,874.664 		"/>
		<polyline fill="none" stroke="#FFFFFF" stroke-width="3" points="45.506,952.539 -22.073,913.523 -22.073,835.648 45.506,874.664 
					"/>
		<polyline fill="none" stroke="#FFFFFF" stroke-width="3" points="113.085,913.404 113.085,758.09 180.666,796.869 
			180.666,952.223 		"/>
		<polyline fill="none" stroke="#FFFFFF" stroke-width="3" points="45.506,563.928 45.506,719.074 -22.073,680.295 -22.073,524.941 
					"/>
		<polyline fill="none" stroke="#FFFFFF" stroke-width="3" points="315.893,175.217 383.472,214.035 518.562,136.201 		"/>
		<polygon fill="none" stroke="#FFFFFF" stroke-width="3" points="383.403,524.941 450.915,563.68 586.143,485.924 518.562,447.225 
					"/>
		<line fill="none" stroke="#FFFFFF" stroke-width="3" x1="113.084" y1="369.845" x2="113.084" y2="447.186"/>
		<circle fill="#0083CA" stroke="#FFFFFF" stroke-width="3" cx="383.369" cy="602.617" r="7"/>
		<circle fill="#0083CA" stroke="#FFFFFF" stroke-width="3" cx="450.947" cy="796.83" r="21"/>
		<circle fill="#0083CA" stroke="#FFFFFF" stroke-width="3" cx="518.598" cy="836.201" r="7"/>
		<circle fill="#0083CA" stroke="#FFFFFF" stroke-width="3" cx="653.756" cy="913.285" r="8"/>
		<circle fill="#0083CA" stroke="#FFFFFF" stroke-width="3" cx="586.037" cy="952.223" r="9"/>
		<circle fill="#0083CA" stroke="#FFFFFF" stroke-width="3" cx="721.334" cy="408.465" r="7"/>
		<circle fill="#0083CA" stroke="#FFFFFF" stroke-width="3" cx="924.072" cy="447.146" r="19"/>
		<circle fill="#0083CA" stroke="#FFFFFF" stroke-width="3" cx="856.355" cy="486.082" r="20"/>
		<circle fill="#0083CA" stroke="#FFFFFF" stroke-width="3" cx="788.984" cy="680.295" r="12"/>
		<circle fill="#0083CA" stroke="#FFFFFF" stroke-width="3" cx="721.266" cy="719.232" r="9"/>
		<circle fill="#0083CA" stroke="#FFFFFF" stroke-width="3" cx="586.107" cy="641.674" r="11"/>
		<circle fill="#0083CA" stroke="#FFFFFF" stroke-width="3" cx="315.857" cy="719.074" r="9"/>
		<circle fill="#0083CA" stroke="#FFFFFF" stroke-width="3" cx="383.438" cy="680.883" r="11"/>
		<circle fill="#0083CA" stroke="#FFFFFF" stroke-width="3" cx="248.209" cy="447.186" r="16"/>
		<circle fill="#0083CA" stroke="#FFFFFF" stroke-width="3" cx="180.699" cy="485.924" r="6"/>
		<circle fill="#0083CA" stroke="#FFFFFF" stroke-width="3" cx="45.541" cy="408.525" r="10"/>
		<circle fill="#0083CA" stroke="#FFFFFF" stroke-width="3" cx="45.574" cy="330.729" r="18"/>
		<circle fill="#0083CA" stroke="#FFFFFF" stroke-width="3" cx="113.086" cy="291.99" r="11"/>
		<circle fill="#0083CA" stroke="#FFFFFF" stroke-width="3" cx="45.541" cy="252.934" r="15"/>
		<circle fill="#0083CA" stroke="#FFFFFF" stroke-width="3" cx="-22.039" cy="291.792" r="5"/>
		<circle fill="#0083CA" stroke="#FFFFFF" stroke-width="3" cx="180.631" cy="252.775" r="18"/>
		<circle fill="#0083CA" stroke="#FFFFFF" stroke-width="3" cx="-22.072" cy="136.201" r="11"/>
		<circle fill="#0083CA" stroke="#FFFFFF" stroke-width="3" cx="248.209" cy="213.917" r="8"/>
		<circle fill="#0083CA" stroke="#FFFFFF" stroke-width="3" cx="586.07" cy="563.928" r="18"/>
		<circle fill="#0083CA" stroke="#FFFFFF" stroke-width="3" cx="653.756" cy="524.932" r="6"/>
		<circle fill="#0083CA" stroke="#FFFFFF" stroke-width="3" cx="586.141" cy="330.828" r="5"/>
		<circle fill="#0083CA" stroke="#FFFFFF" stroke-width="3" cx="518.598" cy="291.792" r="5"/>
		<circle fill="#0083CA" stroke="#FFFFFF" stroke-width="3" cx="586.176" cy="252.775" r="8"/>
		<circle fill="#0083CA" stroke="#FFFFFF" stroke-width="3" cx="653.756" cy="291.792" r="12"/>
		<circle fill="#0083CA" stroke="#FFFFFF" stroke-width="3" cx="586.244" cy="408.515" r="6"/>
		<circle fill="#0083CA" stroke="#FFFFFF" stroke-width="3" cx="383.301" cy="369.845" r="12"/>
		<circle fill="#0083CA" stroke="#FFFFFF" stroke-width="3" cx="451.018" cy="330.907" r="14"/>
		<circle fill="#0083CA" stroke="#FFFFFF" stroke-width="3" cx="248.141" cy="291.871" r="16"/>
		<circle fill="#0083CA" stroke="#FFFFFF" stroke-width="3" cx="924.072" cy="913.523" r="7"/>
		<circle fill="#0083CA" stroke="#FFFFFF" stroke-width="3" cx="856.494" cy="952.539" r="12"/>
		<circle fill="#0083CA" stroke="#FFFFFF" stroke-width="3" cx="856.494" cy="874.664" r="9"/>
		<circle fill="#0083CA" stroke="#FFFFFF" stroke-width="3" cx="924.072" cy="835.648" r="19"/>
		<circle fill="#0083CA" stroke="#FFFFFF" stroke-width="3" cx="721.334" cy="796.869" r="14"/>
		<circle fill="#0083CA" stroke="#FFFFFF" stroke-width="3" cx="788.914" cy="758.09" r="6"/>
		<circle fill="#0083CA" stroke="#FFFFFF" stroke-width="3" cx="788.914" cy="913.404" r="8"/>
		<circle fill="#0083CA" stroke="#FFFFFF" stroke-width="3" cx="721.334" cy="952.223" r="5"/>
		<circle fill="#0083CA" stroke="#FFFFFF" stroke-width="3" cx="924.072" cy="524.941" r="7"/>
		<circle fill="#0083CA" stroke="#FFFFFF" stroke-width="3" cx="924.072" cy="680.295" r="12"/>
		<circle fill="#0083CA" stroke="#FFFFFF" stroke-width="3" cx="856.494" cy="719.074" r="14"/>
		<circle fill="#0083CA" stroke="#FFFFFF" stroke-width="3" cx="586.107" cy="175.217" r="11"/>
		<circle fill="#0083CA" stroke="#FFFFFF" stroke-width="3" cx="451.018" cy="97.541" r="6"/>
		<circle fill="#0083CA" stroke="#FFFFFF" stroke-width="3" cx="383.438" cy="136.201" r="14"/>
		<circle fill="#0083CA" stroke="#FFFFFF" stroke-width="3" cx="315.857" cy="485.924" r="18"/>
		<circle fill="#0083CA" stroke="#FFFFFF" stroke-width="3" cx="518.631" cy="602.617" r="5"/>
		<circle fill="#0083CA" stroke="#FFFFFF" stroke-width="3" cx="518.494" cy="757.893" r="7"/>
		<circle fill="#0083CA" stroke="#FFFFFF" stroke-width="3" cx="450.914" cy="719.271" r="12"/>
		<circle fill="#0083CA" stroke="#FFFFFF" stroke-width="3" cx="383.336" cy="757.893" r="5"/>
		<circle fill="#0083CA" stroke="#FFFFFF" stroke-width="3" cx="450.983" cy="874.822" r="17"/>
		<circle fill="#0083CA" stroke="#FFFFFF" stroke-width="3" cx="383.402" cy="836.201" r="13"/>
		<circle fill="#0083CA" stroke="#FFFFFF" stroke-width="3" cx="248.244" cy="913.285" r="6"/>
		<circle fill="#0083CA" stroke="#FFFFFF" stroke-width="3" cx="315.963" cy="952.223" r="14"/>
		<circle fill="#0083CA" stroke="#FFFFFF" stroke-width="3" cx="-22.072" cy="447.146" r="7"/>
		<circle fill="#0083CA" stroke="#FFFFFF" stroke-width="3" cx="45.645" cy="486.082" r="21"/>
		<circle fill="#0083CA" stroke="#FFFFFF" stroke-width="3" cx="180.666" cy="408.465" r="25"/>
		<circle fill="#0083CA" stroke="#FFFFFF" stroke-width="3" cx="180.734" cy="719.232" r="8"/>
		<circle fill="#0083CA" stroke="#FFFFFF" stroke-width="3" cx="315.893" cy="641.674" r="5"/>
		<circle fill="#0083CA" stroke="#FFFFFF" stroke-width="3" cx="248.312" cy="603.053" r="6"/>
		<circle fill="#0083CA" stroke="#FFFFFF" stroke-width="3" cx="113.016" cy="680.295" r="14"/>
		<circle fill="#0083CA" stroke="#FFFFFF" stroke-width="3" cx="586.143" cy="719.074" r="14"/>
		<circle fill="#0083CA" stroke="#FFFFFF" stroke-width="3" cx="518.562" cy="680.883" r="19"/>
		<circle fill="#0083CA" stroke="#FFFFFF" stroke-width="3" cx="653.721" cy="602.656" r="16"/>
		<circle fill="#0083CA" stroke="#FFFFFF" stroke-width="3" cx="721.301" cy="641.674" r="8"/>
		<circle fill="#0083CA" stroke="#FFFFFF" stroke-width="3" cx="721.301" cy="485.924" r="19"/>
		<circle fill="#0083CA" stroke="#FFFFFF" stroke-width="3" cx="653.791" cy="447.186" r="9"/>
		<circle fill="#0083CA" stroke="#FFFFFF" stroke-width="3" cx="788.881" cy="369.508" r="16"/>
		<circle fill="#0083CA" stroke="#FFFFFF" stroke-width="3" cx="856.459" cy="408.525" r="11"/>
		<circle fill="#0083CA" stroke="#FFFFFF" stroke-width="3" cx="856.426" cy="330.729" r="8"/>
		<circle fill="#0083CA" stroke="#FFFFFF" stroke-width="3" cx="788.914" cy="291.99" r="5"/>
		<circle fill="#0083CA" stroke="#FFFFFF" stroke-width="3" cx="856.459" cy="252.934" r="19"/>
		<circle fill="#0083CA" stroke="#FFFFFF" stroke-width="3" cx="924.039" cy="291.792" r="11"/>
		<circle fill="#0083CA" stroke="#FFFFFF" stroke-width="3" cx="856.562" cy="97.461" r="13"/>
		<circle fill="#0083CA" stroke="#FFFFFF" stroke-width="3" cx="653.791" cy="213.917" r="15"/>
		<circle fill="#0083CA" stroke="#FFFFFF" stroke-width="3" cx="721.369" cy="252.775" r="22"/>
		<circle fill="#0083CA" stroke="#FFFFFF" stroke-width="3" cx="924.072" cy="136.201" r="7"/>
		<circle fill="#0083CA" stroke="#FFFFFF" stroke-width="3" cx="315.824" cy="252.775" r="6"/>
		<circle fill="#0083CA" stroke="#FFFFFF" stroke-width="3" cx="383.402" cy="291.792" r="21"/>
		<circle fill="#0083CA" stroke="#FFFFFF" stroke-width="3" cx="315.859" cy="408.525" r="5"/>
		<circle fill="#0083CA" stroke="#FFFFFF" stroke-width="3" cx="315.859" cy="330.828" r="14"/>
		<circle fill="#0083CA" stroke="#FFFFFF" stroke-width="3" cx="315.93" cy="563.928" r="14"/>
		<circle fill="#0083CA" stroke="#FFFFFF" stroke-width="3" cx="248.244" cy="524.932" r="10"/>
		<circle fill="#0083CA" stroke="#FFFFFF" stroke-width="3" cx="383.371" cy="447.551" r="17"/>
		<circle fill="#0083CA" stroke="#FFFFFF" stroke-width="3" cx="518.562" cy="369.488" r="7"/>
		<circle fill="#0083CA" stroke="#FFFFFF" stroke-width="3" cx="518.699" cy="214.115" r="18"/>
		<circle fill="#0083CA" stroke="#FFFFFF" stroke-width="3" cx="450.982" cy="175.139" r="8"/>
		<circle fill="#0083CA" stroke="#FFFFFF" stroke-width="3" cx="45.506" cy="874.664" r="7"/>
		<circle fill="#0083CA" stroke="#FFFFFF" stroke-width="3" cx="-22.072" cy="835.648" r="21"/>
		<circle fill="#0083CA" stroke="#FFFFFF" stroke-width="3" cx="-22.072" cy="913.523" r="12"/>
		<circle fill="#0083CA" stroke="#FFFFFF" stroke-width="3" cx="45.506" cy="952.539" r="23"/>
		<circle fill="#0083CA" stroke="#FFFFFF" stroke-width="3" cx="180.666" cy="952.223" r="8"/>
		<circle fill="#0083CA" stroke="#FFFFFF" stroke-width="3" cx="180.666" cy="796.869" r="15"/>
		<circle fill="#0083CA" stroke="#FFFFFF" stroke-width="3" cx="113.086" cy="758.09" r="23"/>
		<circle fill="#0083CA" stroke="#FFFFFF" stroke-width="3" cx="113.086" cy="913.404" r="5"/>
		<circle fill="#0083CA" stroke="#FFFFFF" stroke-width="3" cx="-22.072" cy="524.941" r="14"/>
		<circle fill="#0083CA" stroke="#FFFFFF" stroke-width="3" cx="-22.072" cy="680.295" r="5"/>
		<circle fill="#0083CA" stroke="#FFFFFF" stroke-width="3" cx="45.506" cy="719.074" r="12"/>
		<circle fill="#0083CA" stroke="#FFFFFF" stroke-width="3" cx="45.506" cy="563.928" r="8"/>
		<circle fill="#0083CA" stroke="#FFFFFF" stroke-width="3" cx="518.562" cy="136.201" r="14"/>
		<circle fill="#0083CA" stroke="#FFFFFF" stroke-width="3" cx="383.473" cy="214.035" r="12"/>
		<circle fill="#0083CA" stroke="#FFFFFF" stroke-width="3" cx="315.893" cy="175.217" r="18"/>
		<circle fill="#0083CA" stroke="#FFFFFF" stroke-width="3" cx="518.562" cy="447.225" r="13"/>
		<circle fill="#0083CA" stroke="#FFFFFF" stroke-width="3" cx="586.143" cy="485.924" r="9"/>
		<circle fill="#0083CA" stroke="#FFFFFF" stroke-width="3" cx="450.914" cy="563.68" r="5"/>
		<circle fill="#0083CA" stroke="#FFFFFF" stroke-width="3" cx="383.402" cy="524.941" r="9"/>
		<circle fill="#0083CA" stroke="#FFFFFF" stroke-width="3" cx="113.084" cy="447.186" r="17"/>
		<circle fill="#0083CA" stroke="#FFFFFF" stroke-width="3" cx="113.084" cy="369.845" r="9"/>
	</g>
</g>
</svg>
